HIERARCHY
ROOT Hips
{
	OFFSET 0.000000 0.000000 0.000000
	CHANNELS 6 Xposition Yposition Zposition Xrotation Yrotation Zrotation
	JOINT LeftUpLeg_virtual
	{
		OFFSET 0.000000 0.000000 0.000000
		CHANNELS 3 Xrotation Yrotation Zrotation
		JOINT LeftUpLeg
		{
			OFFSET 11.394100 -6.187798 -0.413800
			CHANNELS 3 Xrotation Yrotation Zrotation
			JOINT LeftLeg
			{
				OFFSET 0.430247 -32.302673 3.732800
				CHANNELS 3 Xrotation Yrotation Zrotation
				JOINT LeftFoot
				{
					OFFSET -0.430247 -48.264931 -6.423300
					CHANNELS 3 Xrotation Yrotation Zrotation
					JOINT LeftToeBase
					{
						OFFSET 4.230900 -16.068199 23.438400
						CHANNELS 3 Xrotation Yrotation Zrotation
						JOINT LeftToe_End
						{
							OFFSET 4.510700 0.695400 19.974600
							CHANNELS 3 Xrotation Yrotation Zrotation
							End Site
							{
								OFFSET 0 0 0
							}
						}
					}
				}
			}
		}
	}
	JOINT RightUpLeg_virtual
	{
		OFFSET 0.000000 0.000000 0.000000
		CHANNELS 3 Xrotation Yrotation Zrotation
		JOINT RightUpLeg
		{
			OFFSET -11.333700 -6.187798 -0.413800
			CHANNELS 3 Xrotation Yrotation Zrotation
			JOINT RightLeg
			{
				OFFSET -0.430392 -32.302628 3.733000
				CHANNELS 3 Xrotation Yrotation Zrotation
				JOINT RightFoot
				{
					OFFSET 0.430392 -48.264973 -6.423500
					CHANNELS 3 Xrotation Yrotation Zrotation
					JOINT RightToeBase
					{
						OFFSET -4.230900 -16.068199 23.438400
						CHANNELS 3 Xrotation Yrotation Zrotation
						JOINT RightToe_End
						{
							OFFSET -4.510700 0.695400 19.974600
							CHANNELS 3 Xrotation Yrotation Zrotation
							End Site
							{
								OFFSET 0 0 0
							}
						}
					}
				}
			}
		}
	}
	JOINT Spine_virtual
	{
		OFFSET 0.000000 0.000000 0.000000
		CHANNELS 3 Xrotation Yrotation Zrotation
		JOINT Spine
		{
			OFFSET -0.002400 12.777504 0.315300
			CHANNELS 3 Xrotation Yrotation Zrotation
			JOINT Spine1
			{
				OFFSET -0.002067 5.816869 0.032633
				CHANNELS 3 Xrotation Yrotation Zrotation
				JOINT Spine1_split
				{
					OFFSET -0.002067 5.816869 0.032633
					CHANNELS 3 Xrotation Yrotation Zrotation
					JOINT Spine2
					{
						OFFSET -0.002067 5.816869 0.032633
						CHANNELS 3 Xrotation Yrotation Zrotation
						JOINT Neck_virtual
						{
							OFFSET 0.000000 0.000000 0.000000
							CHANNELS 3 Xrotation Yrotation Zrotation
							JOINT Neck
							{
								OFFSET -0.003700 21.199493 -0.826900
								CHANNELS 3 Xrotation Yrotation Zrotation
								JOINT Head
								{
									OFFSET 0.000000 20.442200 4.834800
									CHANNELS 3 Xrotation Yrotation Zrotation
									JOINT HeadTop_End
									{
										OFFSET 0.000000 34.668396 4.968400
										CHANNELS 3 Xrotation Yrotation Zrotation
										End Site
										{
											OFFSET 0 0 0
										}
									}
								}
							}
						}
						JOINT LeftShoulder_virtual
						{
							OFFSET 0.000000 0.000000 0.000000
							CHANNELS 3 Xrotation Yrotation Zrotation
							JOINT LeftShoulder
							{
								OFFSET 3.288150 8.794197 -1.372250
								CHANNELS 3 Xrotation Yrotation Zrotation
								JOINT LeftShoulder_split
								{
									OFFSET 3.288150 8.794197 -1.372250
									CHANNELS 3 Xrotation Yrotation Zrotation
									JOINT LeftArm
									{
										OFFSET 11.953299 -2.279007 -0.146200
										CHANNELS 3 Xrotation Yrotation Zrotation
										JOINT LeftForeArm
										{
											OFFSET 18.448900 0.000000 0.000000
											CHANNELS 3 Xrotation Yrotation Zrotation
											JOINT LeftHand
											{
												OFFSET 29.527798 0.000000 0.000000
												CHANNELS 3 Xrotation Yrotation Zrotation
												End Site
												{
													OFFSET 0 0 0
												}
											}
										}
									}
								}
							}
						}
						JOINT RightShoulder_virtual
						{
							OFFSET 0.000000 0.000000 0.000000
							CHANNELS 3 Xrotation Yrotation Zrotation
							JOINT RightShoulder
							{
								OFFSET -3.249400 8.794197 -1.372250
								CHANNELS 3 Xrotation Yrotation Zrotation
								JOINT RightShoulder_split
								{
									OFFSET -3.249400 8.794197 -1.372250
									CHANNELS 3 Xrotation Yrotation Zrotation
									JOINT RightArm
									{
										OFFSET -11.953299 -2.279007 -0.146200
										CHANNELS 3 Xrotation Yrotation Zrotation
										JOINT RightForeArm
										{
											OFFSET -18.448900 0.000000 0.000000
											CHANNELS 3 Xrotation Yrotation Zrotation
											JOINT RightHand
											{
												OFFSET -29.527802 0.000000 0.000000
												CHANNELS 3 Xrotation Yrotation Zrotation
												End Site
												{
													OFFSET 0 0 0
												}
											}
										}
									}
								}
							}
						}
					}
				}
			}
		}
	}
}
MOTION
Frames: 4
Frame Time: 0.03333333
-0.175139 98.591225 -7.727602 0.000000 0.000000 0.000000 2.714514 2.315288 -0.338557 -23.242468 7.064766 8.063415 31.030728 0.337610 1.301072 -9.649462 0.638037 -3.238495 -1.139496 -0.019813 0.913556 0.000000 0.000000 0.000000 2.880045 2.666206 -0.624462 -13.937494 -6.517273 -5.363175 22.932283 -9.014319 1.323743 -8.649133 -15.561679 1.029501 -0.726916 0.031110 -0.268308 0.000000 0.000000 0.000000 3.007761 0.638327 -1.261289 19.155110 -2.299670 -0.365827 -0.435882 -0.358726 1.201555 0.639949 0.588865 0.104442 0.000000 0.000000 0.000000 0.401391 -0.241054 0.555513 15.932834 2.165316 0.689421 11.870490 2.302352 1.815019 0.000000 0.000000 0.000000 0.252712 -0.040533 0.228611 11.107961 -38.391209 -0.493230 0.403324 -1.203946 -3.307532 16.525498 15.519375 -48.243945 -0.204546 -33.380111 0.991436 0.000000 0.000000 0.000000 -0.189191 -0.058581 0.862684 1.724876 -2.576248 6.583454 -0.754453 2.297162 -0.354710 2.470654 19.085283 36.026598 0.310585 16.665187 1.612338 0.000000 0.000000 0.000000 
-0.139927 98.680626 -7.565882 0.000000 0.000000 0.000000 2.546212 2.341989 -0.248612 -22.833210 7.231125 8.034307 30.738771 0.310215 1.249385 -9.562928 0.643139 -3.146740 -1.127082 -0.009110 0.937302 0.000000 0.000000 0.000000 2.747096 2.700493 -0.539003 -13.578410 -6.439071 -5.421812 22.747559 -8.915494 1.285510 -8.539439 -15.580193 1.026602 -0.670305 0.019218 -0.271266 0.000000 0.000000 0.000000 2.825236 0.842153 -1.144650 18.557892 -2.326662 -0.328586 -0.435238 -0.361142 1.108965 0.638537 0.592801 0.122643 0.000000 0.000000 0.000000 0.411736 -0.237910 0.454348 15.908142 1.492721 0.756349 11.839156 -0.480728 3.039503 0.000000 0.000000 0.000000 0.289934 -0.039382 0.131735 10.785313 -38.157477 -0.575270 0.374155 -1.084571 -3.130072 18.134328 16.268402 -48.549668 -0.192166 -32.855867 0.989606 0.000000 0.000000 0.000000 -0.165818 -0.055473 0.793725 1.509947 -3.010458 6.383396 -0.530210 2.360506 -0.360781 3.986162 18.699504 35.613105 0.446690 16.677176 1.494172 0.000000 0.000000 0.000000 
-0.118786 98.736572 -7.460020 0.000000 0.000000 0.000000 2.384082 2.352594 -0.192787 -22.536264 7.317635 7.989233 30.540761 0.255359 1.234120 -9.486483 0.639867 -3.069081 -1.112428 0.003837 0.939223 0.000000 0.000000 0.000000 2.615079 2.705469 -0.482054 -13.253734 -6.334633 -5.449405 22.622620 -8.826736 1.261369 -8.469075 -15.610688 1.006506 -0.637845 0.008446 -0.264251 0.000000 0.000000 0.000000 2.657340 1.038970 -1.048443 18.034017 -2.269587 -0.308417 -0.390326 -0.356053 1.076433 0.653750 0.577602 0.124480 0.000000 0.000000 0.000000 0.406096 -0.225976 0.408382 15.853800 0.900064 0.827430 11.741333 -2.782679 4.014773 0.000000 0.000000 0.000000 0.358447 -0.035804 0.094462 10.491359 -37.745183 -0.615583 0.384366 -0.906028 -2.989800 19.251810 16.590190 -49.063305 -0.253574 -32.355808 0.982104 0.000000 0.000000 0.000000 -0.105359 -0.043840 0.776281 1.380788 -3.355657 6.298759 -0.317621 2.469038 -0.350234 4.468579 18.478061 35.955782 0.495734 16.589435 1.418577 0.000000 0.000000 0.000000 
-0.107309 98.751099 -7.397715 0.000000 0.000000 0.000000 2.216537 2.368613 -0.152769 -22.347223 7.292753 7.915458 30.458583 0.163576 1.261567 -9.394118 0.623546 -3.025389 -1.081721 0.018994 0.914656 0.000000 0.000000 0.000000 2.463929 2.703368 -0.436333 -12.972968 -6.210879 -5.460172 22.581941 -8.762933 1.251950 -8.466444 -15.664340 0.959970 -0.623544 -0.000005 -0.254478 0.000000 0.000000 0.000000 2.492155 1.223972 -0.957065 17.609916 -2.143775 -0.307459 -0.315790 -0.348188 1.096772 0.677862 0.576018 0.067322 0.000000 0.000000 0.000000 0.372576 -0.211138 0.409784 15.792060 0.408143 0.896617 11.646897 -4.571376 4.762526 0.000000 0.000000 0.000000 0.435461 -0.034829 0.102040 10.231774 -37.248724 -0.639272 0.364330 -0.634485 -2.903458 19.830841 16.518119 -49.659290 -0.434192 -31.689988 0.941680 0.000000 0.000000 0.000000 -0.024361 -0.026053 0.801394 1.345855 -3.595883 6.371398 -0.154865 2.539363 -0.297896 3.955923 18.362813 37.062003 0.476649 16.417714 1.362609 0.000000 0.000000 0.000000 
